<?xml version="1.0" encoding="UTF-8" standalone="no"?>
<!-- Created with Inkscape (http://www.inkscape.org/) -->

<svg
   width="1536"
   height="433.77231"
   viewBox="0 0 406.39999 114.76892"
   version="1.1"
   id="svg5"
   inkscape:version="1.2.2 (732a01da63, 2022-12-09)"
   sodipodi:docname="banner.svg"
   xml:space="preserve"
   xmlns:inkscape="http://www.inkscape.org/namespaces/inkscape"
   xmlns:sodipodi="http://sodipodi.sourceforge.net/DTD/sodipodi-0.dtd"
   xmlns="http://www.w3.org/2000/svg"
   xmlns:svg="http://www.w3.org/2000/svg"><sodipodi:namedview
     id="namedview7"
     pagecolor="#ffffff"
     bordercolor="#666666"
     borderopacity="1.0"
     inkscape:showpageshadow="2"
     inkscape:pageopacity="0.0"
     inkscape:pagecheckerboard="0"
     inkscape:deskcolor="#d1d1d1"
     inkscape:document-units="px"
     showgrid="true"
     inkscape:zoom="0.71192949"
     inkscape:cx="847.69631"
     inkscape:cy="239.49001"
     inkscape:window-width="1920"
     inkscape:window-height="1001"
     inkscape:window-x="-9"
     inkscape:window-y="-9"
     inkscape:window-maximized="1"
     inkscape:current-layer="layer1"><inkscape:grid
       type="xygrid"
       id="grid10412"
       originx="21.795496"
       originy="-96.897749" /></sodipodi:namedview><defs
     id="defs2" /><g
     inkscape:label="Ebene 1"
     inkscape:groupmode="layer"
     id="layer1"
     transform="translate(21.795496,-96.897751)"><rect
       style="fill:#1e3f63;fill-opacity:1;stroke-width:0.972378"
       id="rect234"
       width="406.39999"
       height="101.6"
       x="-21.795496"
       y="110.06667" /><g
       id="g9923"><rect
         style="fill:#d9dadb;fill-opacity:1;stroke-width:0.350877"
         id="rect234-6"
         width="406.39999"
         height="13.229166"
         x="-21.795496"
         y="96.897751" /><g
         id="g9916"
         transform="translate(0,-0.12808514)"><circle
           style="fill:#fc4949;fill-opacity:1;stroke-width:0.79375"
           id="path6217"
           cx="-12.512266"
           cy="103.64042"
           r="3.2757032" /><circle
           style="fill:#fcc050;fill-opacity:1;stroke-width:0.79375"
           id="path6217-1"
           cx="-0.98652411"
           cy="103.64042"
           r="3.2757032" /><circle
           style="fill:#4fc66d;fill-opacity:1;stroke-width:0.79375"
           id="path6217-1-1"
           cx="10.539218"
           cy="103.64042"
           r="3.2757032" /></g></g><path
       id="path22150"
       style="fill:#4bdda5;fill-opacity:1;stroke:#000000;stroke-width:0;stroke-linecap:butt;stroke-linejoin:miter;stroke-dasharray:none;stroke-opacity:1"
       d="m -3.6957455,148.38953 v 4.1388 l 12.40185,8.33755 h -0.047 l -12.38564,8.27923 v 4.13881 l 4.10802004,0.0599 12.47798046,-8.33755 v -4.14043 h 0.0308 v -4.16796 L 0.38153454,148.41869 Z" /><g
       id="g27859"
       transform="translate(8.113731)"><path
         id="path27311"
         style="fill:#000000;fill-opacity:1;stroke-width:0;stroke-dasharray:none"
         d="M 107.95723,87.21793 55.344941,87.162119 A 35.110641,35.110641 0 0 0 81.675116,99.079738 35.110641,35.110641 0 0 0 107.95723,87.21793 Z"
         transform="translate(-21.795496,96.897751)" /><path
         id="path27694"
         style="fill:#d9dadb;fill-opacity:1;stroke-width:0;stroke-dasharray:none"
         d="m 81.675116,28.858186 a 35.110641,35.110641 0 0 0 -35.110518,35.110518 35.110641,35.110641 0 0 0 8.780343,23.193415 l 52.612289,0.05581 a 35.110641,35.110641 0 0 0 8.8284,-23.249226 35.110641,35.110641 0 0 0 -35.110514,-35.110518 z"
         transform="translate(-21.795496,96.897751)" /><path
         style="fill:#000000;stroke-width:0.0406817"
         d="m 55.318437,87.023969 c 0.26583,-0.341536 0.877244,-0.950055 1.316984,-1.310698 0.746018,-0.611829 0.789157,-0.644181 1.50472,-1.12883 1.314785,-0.890511 1.787142,-1.120262 3.437611,-1.672065 1.531128,-0.511905 1.822561,-0.61769 3.457951,-1.255127 1.144893,-0.446258 1.916477,-0.800058 2.359545,-1.081889 0.123082,-0.07827 0.425124,-0.300737 0.671248,-0.494323 0.903092,-0.710309 2.568951,-1.749572 3.935964,-2.455465 0.137114,-0.07085 0.152567,-0.09492 0.152567,-0.238864 0,-0.373708 -0.166676,-1.515262 -0.380291,-2.604577 -0.06415,-0.327188 -0.204885,-0.569463 -0.700942,-1.206921 -0.66012,-0.848264 -1.34465,-1.866776 -1.754423,-2.610358 -0.344907,-0.625898 -0.773451,-1.81614 -1.252357,-3.4783 -0.141828,-0.49225 -0.305235,-1.055183 -0.363109,-1.250965 -0.0579,-0.195793 -0.149676,-0.506997 -0.20402,-0.691588 -0.12722,-0.432325 -0.310911,-0.922093 -0.461547,-1.230625 -0.239485,-0.490554 -0.334035,-0.738596 -0.393758,-1.033015 -0.03357,-0.16541 -0.06601,-0.304541 -0.07215,-0.309218 -0.006,-0.0046 -0.130008,-0.07068 -0.275312,-0.146766 -0.692761,-0.36267 -1.306513,-1.219401 -1.629129,-2.274088 -0.229433,-0.750018 -0.522438,-1.244154 -0.786609,-1.326509 -0.130369,-0.04065 -0.146164,-0.08894 -0.146865,-0.448811 -4.83e-4,-0.255843 0.01566,-0.350855 0.07056,-0.417921 0.03914,-0.04774 0.40987,-0.243469 0.823809,-0.434929 0.991375,-0.458569 1.060416,-0.489309 1.179772,-0.525303 0.234078,-0.07061 0.218384,-0.189233 -0.116799,-0.884296 -0.304871,-0.632177 -0.479633,-1.115691 -0.733096,-2.028316 -0.246983,-0.889291 -1.006559,-3.077106 -1.124167,-3.237944 -0.04313,-0.05899 -0.06146,-0.06153 -0.116116,-0.01625 -0.128121,0.106334 -0.250068,0.02156 -0.41157,-0.2857 -0.174723,-0.332485 -0.263435,-0.628882 -0.264133,-0.882472 -5.43e-4,-0.197883 0.04618,-0.305735 0.186402,-0.430381 l 0.09638,-0.08562 -0.15957,-0.234443 c -0.165571,-0.243267 -0.221505,-0.452882 -0.197981,-0.741933 0.01109,-0.136349 0.03435,-0.173277 0.143413,-0.227775 0.123948,-0.0619 0.127158,-0.06936 0.06722,-0.154935 -0.04191,-0.0598 -0.07051,-0.226879 -0.08552,-0.499413 -0.01927,-0.347264 -0.01265,-0.415019 0.04197,-0.445649 0.05421,-0.03018 0.06085,-0.09332 0.0414,-0.393181 -0.01867,-0.286194 -0.0097,-0.382973 0.04441,-0.487654 0.08475,-0.163926 0.163484,-0.164868 0.313897,-0.004 0.146023,0.15632 0.203292,0.122683 0.307623,-0.180701 0.06203,-0.180402 0.07122,-0.339901 0.06436,-1.117321 -0.0071,-0.783949 4.78e-4,-0.910131 0.05464,-0.930912 0.03446,-0.01323 0.08342,-0.0032 0.108812,0.02224 0.03444,0.03444 0.07451,0.01526 0.157703,-0.07596 0.0768,-0.08409 0.149777,-0.122121 0.234312,-0.122121 0.09013,0 0.171873,-0.04775 0.307394,-0.179438 0.179539,-0.174502 0.184616,-0.186304 0.184616,-0.429413 v -0.249967 l 0.200703,-0.08341 c 0.110381,-0.04587 0.211521,-0.111609 0.224725,-0.146004 0.03251,-0.0845 -0.07976,-0.200571 -0.247281,-0.255873 -0.223661,-0.07382 -0.164508,-0.261082 0.157682,-0.499075 0.205317,-0.151663 0.215036,-0.154333 0.465805,-0.12748 l 0.256106,0.02753 V 41.8848 c 0,-0.198425 0.06707,-0.323714 0.285233,-0.5329 0.186,-0.178356 0.44172,-0.330552 1.418191,-0.844109 0.16495,-0.08675 0.299034,-0.175625 0.297939,-0.197521 -10e-4,-0.0219 -0.08479,-0.06105 -0.186001,-0.08697 -0.225419,-0.05782 -0.26944,-0.08361 -0.26944,-0.157843 0,-0.06604 0.01686,-0.07073 0.650908,-0.180543 0.257302,-0.04456 0.559373,-0.117059 0.671251,-0.161096 l 0.203426,-0.08007 -0.392297,-0.0019 c -0.300925,-0.0015 -0.397483,-0.01525 -0.414572,-0.05995 -0.03251,-0.08473 0.0425,-0.130008 0.339026,-0.204652 0.385344,-0.09699 1.315721,-0.394301 1.360808,-0.434827 0.0219,-0.01967 -0.05742,-0.03501 -0.183051,-0.03537 -0.244028,-6.89e-4 -0.369811,-0.05061 -0.300957,-0.119452 0.02322,-0.02322 0.251859,-0.05952 0.50818,-0.08073 0.520987,-0.0432 1.218676,-0.16551 1.218676,-0.213677 0,-0.01726 -0.05034,-0.04252 -0.111867,-0.05609 -0.239154,-0.05274 -0.315751,-0.08772 -0.327761,-0.149676 -0.0071,-0.03539 0.02058,-0.07458 0.06103,-0.08708 0.149515,-0.04628 1.462763,-0.103503 1.809773,-0.07885 0.204356,0.01465 0.35877,0.0097 0.35867,-0.01121 -8.3e-5,-0.02024 -0.111066,-0.08236 -0.246585,-0.138296 -0.28225,-0.116505 -0.35904,-0.183412 -0.289845,-0.252623 0.03389,-0.03389 0.169945,-0.0272 0.525103,0.02555 1.246277,0.18574 1.406482,0.195856 2.330348,0.147188 0.48106,-0.02521 1.057721,-0.06595 1.281473,-0.09023 0.690175,-0.07489 2.60089,-0.06095 3.19352,0.02322 2.326144,0.330749 4.334876,1.130144 5.542286,2.20562 1.009016,0.898751 2.162073,2.629227 2.944675,4.419288 0.192583,0.440453 0.298468,0.637235 0.3392,0.630351 0.1393,-0.02356 0.289679,-0.332345 0.362337,-0.744105 0.05497,-0.311609 0.08714,-0.407403 0.140163,-0.417617 0.05903,-0.01121 0.06883,0.02488 0.06883,0.254149 0,0.147087 0.01525,0.267418 0.03383,0.267418 0.01867,0 0.114711,-0.155395 0.213576,-0.345269 0.09885,-0.189894 0.198023,-0.339004 0.22041,-0.331343 0.06163,0.02123 0.02488,0.379403 -0.0628,0.609814 -0.04268,0.112387 -0.07159,0.21039 -0.06422,0.217754 0.0072,0.0072 0.240348,-0.104541 0.517728,-0.248707 0.563576,-0.29293 0.841326,-0.385645 1.186216,-0.395999 0.408046,-0.01224 0.371166,0.0706 -0.09201,0.206676 -0.29074,0.08541 -1.11978,0.466982 -1.161574,0.534602 -0.01109,0.01766 0.140724,0.02289 0.336965,0.01168 0.418073,-0.02389 0.722902,0.02123 0.722902,0.106428 0,0.0629 -0.03217,0.07163 -0.741877,0.20043 -0.429352,0.07794 -0.896771,0.256272 -0.966196,0.368597 -0.01666,0.0272 0.09336,0.0416 0.315356,0.0416 0.252123,0 0.41454,0.0252 0.622797,0.09623 0.4565,0.155958 0.840329,0.343735 0.820068,0.401234 -0.02222,0.06313 -0.02455,0.06285 -0.579019,-0.06671 -0.521126,-0.12176 -1.114349,-0.142211 -1.343805,-0.04634 -0.143677,0.06004 -0.171753,0.130509 -0.102256,0.2569 0.05381,0.0978 0.417614,0.949533 0.542803,1.270758 0.286894,0.736081 0.638415,2.095803 0.737746,2.853551 0.154835,1.180943 0.187968,2.515877 0.08321,3.350417 -0.04237,0.337443 -0.05341,0.6452 -0.03577,0.996702 0.0219,0.433659 0.01366,0.553446 -0.05567,0.813637 -0.04465,0.167797 -0.09321,0.334027 -0.107997,0.369363 -0.02024,0.04866 0.01205,0.07584 0.132657,0.112021 0.220841,0.06616 0.532889,0.306531 0.717558,0.552677 0.211585,0.282017 0.504564,0.916086 0.573434,1.240972 0.07571,0.357152 0.07393,1.322306 -0.0034,1.837023 -0.117342,0.781245 -0.252987,1.205776 -0.681893,2.133905 -0.144417,0.312535 -0.322289,0.705534 -0.395254,0.873347 -0.371915,0.855316 -0.909335,1.546216 -1.560089,2.005608 -0.611909,0.43197 -1.019521,0.58167 -1.491787,0.547879 l -0.284471,-0.02024 4.11e-4,3.666098 c 4.02e-4,3.513279 0.0035,3.680114 0.08084,4.002185 0.04431,0.184836 0.140885,0.459442 0.214606,0.610222 0.169423,0.346516 0.981153,1.842892 1.118616,2.062108 0.288353,0.459846 0.718372,0.949192 1.238787,1.409721 l 0.313961,0.277837 0.17424,-0.07907 c 0.09581,-0.04355 0.240614,-0.07948 0.321793,-0.08007 0.146163,-9.02e-4 0.762136,0.171993 1.154262,0.323976 0.111868,0.04334 0.423091,0.163363 0.691587,0.266921 0.751813,0.289637 1.897269,0.882782 2.149595,1.113117 0.06356,0.058 0.139609,0.151119 0.169086,0.207133 0.105603,0.200491 1.770241,1.157128 3.529555,2.028333 2.136837,1.058146 2.573677,1.325389 4.977307,3.044875 0.78082,0.558585 1.77378,1.233754 2.20658,1.500351 1.37311,0.845837 1.70907,1.082252 2.10065,1.478216 l 0.36531,0.369354 H 81.619543 55.183988 l 0.134567,-0.172996 z m 25.400092,-2.921932 c 2.767028,-0.186845 5.29266,-0.849689 6.629142,-1.739677 0.388378,-0.258631 1.394207,-1.247179 1.972885,-1.939004 0.860625,-1.028886 1.254776,-1.637624 1.524326,-2.354215 0.113708,-0.302282 0.128644,-0.434518 0.06299,-0.557201 -0.05039,-0.09412 -0.120615,-0.103562 -0.120615,-0.01605 0,0.07989 -0.04587,0.05538 -0.473801,-0.251688 -0.692462,-0.497094 -1.390973,-1.231284 -1.793832,-1.88552 -0.193206,-0.313762 -0.80623,-1.449596 -1.073523,-1.989096 -0.343542,-0.69335 -0.334351,-0.560552 -0.326836,-4.7234 0.0035,-2.00256 -0.0072,-3.659325 -0.02388,-3.681703 -0.01686,-0.02222 -0.08544,-0.06814 -0.152546,-0.10171 -0.190316,-0.09516 -0.361739,-0.475262 -0.375453,-0.832578 l -0.01109,-0.286162 0.05961,0.211418 c 0.03283,0.11628 0.11431,0.332033 0.181163,0.479464 0.108411,0.239087 0.14211,0.277171 0.312071,0.352328 0.576293,0.254912 1.229474,0.06239 2.064488,-0.608447 0.214076,-0.171973 0.454844,-0.399445 0.535043,-0.505461 0.08022,-0.106028 0.192785,-0.243299 0.250134,-0.305103 0.120114,-0.129347 0.611314,-1.127131 0.835442,-1.697015 0.04441,-0.11293 0.133299,-0.306032 0.19748,-0.429093 0.140364,-0.26911 0.392453,-1.017201 0.466088,-1.38318 0.0292,-0.145442 0.07538,-0.362635 0.102462,-0.482664 0.03317,-0.146604 0.04313,-0.460378 0.03052,-0.956018 -0.01585,-0.623321 -0.03251,-0.775667 -0.10689,-0.981885 -0.279691,-0.774601 -0.701433,-1.341598 -1.09943,-1.47813 -0.282378,-0.09687 -0.662292,-0.05944 -1.21221,0.119493 -1.032838,0.33602 -1.709857,0.790469 -2.029737,1.36247 -0.210358,0.376125 -0.516035,1.192573 -0.693841,1.853124 -0.09464,0.351622 -0.177191,0.581787 -0.21361,0.595768 -0.03709,0.01424 -0.129908,-0.05395 -0.247315,-0.181627 -0.198745,-0.216131 -0.235769,-0.329024 -0.371396,-1.132001 -0.05451,-0.32272 -0.129908,-0.549604 -0.338049,-1.017045 -0.115513,-0.259457 -0.145,-0.377009 -0.145402,-0.579716 -4.04e-4,-0.139822 -0.01168,-0.254246 -0.02521,-0.254246 -0.01364,0 -0.271928,0.08341 -0.573935,0.185319 -1.083659,0.365735 -2.053697,0.805431 -2.28319,1.034929 -0.173559,0.173559 -0.199569,0.304107 -0.249804,1.253566 -0.02388,0.454414 -0.0699,0.962986 -0.101874,1.130165 -0.144338,0.754394 -0.691065,1.332251 -1.585254,1.675525 -0.85531,0.32836 -2.297291,0.45905 -3.466934,0.314262 -0.77758,-0.09629 -1.16838,-0.250401 -1.66686,-0.657446 -0.419064,-0.342188 -1.01271,-1.144122 -1.335691,-1.804343 -0.103845,-0.21228 -0.219747,-0.447183 -0.257567,-0.522023 -0.03781,-0.07484 -0.131173,-0.191279 -0.207506,-0.258759 -0.125592,-0.111042 -0.159408,-0.120998 -0.356273,-0.104647 -0.15403,0.01285 -0.246719,0.04545 -0.317513,0.112008 -0.158346,0.148753 -0.302516,0.656638 -0.468047,1.648625 -0.04107,0.24612 -0.113851,0.639722 -0.161798,0.874657 -0.0479,0.234943 -0.09698,0.637688 -0.109013,0.895001 -0.02688,0.572029 -0.04957,0.650276 -0.299928,1.030002 -0.510778,0.774706 -0.625466,1.227829 -0.379539,1.499573 0.03409,0.03765 0.150881,0.09124 0.259557,0.119132 0.245158,0.06284 0.229001,0.119852 -0.02058,0.07321 -0.355601,-0.06645 -0.493896,-0.248079 -0.484302,-0.636142 0.0063,-0.251063 0.185038,-0.655118 0.479431,-1.083095 0.105461,-0.153329 0.210258,-0.327265 0.232884,-0.386478 0.02256,-0.05922 0.05719,-0.345666 0.07686,-0.636541 0.01967,-0.290874 0.04664,-0.602089 0.05991,-0.69159 l 0.02422,-0.16272 -0.09346,0.118768 c -0.481993,0.612714 -0.905804,0.939865 -1.395261,1.077051 -0.363904,0.102019 -1.088419,0.252159 -1.586587,0.328824 -0.706023,0.108671 -1.266313,0.107232 -1.711538,-0.0042 -0.190154,-0.0477 -0.35458,-0.07789 -0.365375,-0.06707 -0.05974,0.05974 0.127197,0.64919 0.34199,1.078472 0.243134,0.48586 0.422709,0.972398 0.657271,1.780672 0.07143,0.24612 0.181164,0.621415 0.243833,0.833974 0.06266,0.212582 0.172674,0.597006 0.244461,0.85432 0.312635,1.120854 0.773515,2.419282 1.075771,3.030788 0.385505,0.779949 1.007834,1.720131 1.997362,3.017462 0.202562,0.265596 0.44479,0.621422 0.538252,0.790746 0.302552,0.548069 0.615699,0.862392 1.107182,1.11129 0.846833,0.428878 2.366835,0.688594 3.472574,0.593387 1.066838,-0.09192 1.838528,-0.386996 3.136346,-1.199415 0.379349,-0.237459 0.919402,-0.562699 1.200112,-0.722753 1.718822,-0.980017 3.073743,-1.929268 3.798308,-2.661132 0.518802,-0.524007 0.83395,-0.952843 1.140155,-1.551488 0.533158,-1.042308 0.711144,-1.986964 0.837118,-4.442976 0.03216,-0.627203 0.03495,-0.549741 0.02356,0.650911 -0.01121,1.162596 -0.02556,1.433917 -0.09836,1.846595 -0.199468,1.13198 -0.468126,1.831155 -1.041193,2.709765 -0.238789,0.366082 -1.210014,1.353244 -1.647105,1.67411 -0.790653,0.58042 -1.918192,1.308691 -2.888409,1.865592 -0.324443,0.186241 -0.882794,0.520995 -1.240792,0.743943 -0.358001,0.22297 -0.824823,0.493443 -1.037389,0.601092 -1.30729,0.662043 -2.593087,0.806741 -4.271584,0.480717 -1.064379,-0.206732 -1.689462,-0.500504 -2.221177,-1.043918 -0.185619,-0.189654 -0.187867,-0.190657 -0.163924,-0.07023 0.188469,0.946763 0.30507,1.878655 0.371615,2.969757 0.02653,0.434658 -0.07245,1.171878 -0.202065,1.505227 l -0.06326,0.162761 0.02058,-0.2034 0.02058,-0.203421 -0.08066,0.2441 c -0.164969,0.499401 -0.07482,1.574508 0.186041,2.218688 0.303116,0.748581 0.984639,1.423387 1.833748,1.8157 0.76493,0.353418 1.592465,0.476782 4.020994,0.599386 0.425126,0.02147 1.949615,-0.01405 2.644315,-0.06001 z M 73.761947,70.073159 c -0.775898,-0.126035 -1.535201,-0.471912 -2.003581,-0.912578 -0.117459,-0.110547 -0.213575,-0.231756 -0.213575,-0.269441 0,-0.214639 0.498916,-0.732421 0.882933,-0.916319 0.5434,-0.260218 1.06283,-0.319169 1.758903,-0.199608 0.364217,0.06258 0.387086,0.06194 0.627565,-0.01726 0.786126,-0.259122 0.857419,-0.270766 1.653097,-0.270037 0.836349,7.63e-4 0.836964,8.97e-4 1.596761,0.354877 0.233678,0.108872 0.355044,0.187967 0.353285,0.230295 -0.0024,0.05816 -0.173177,0.206211 -1.211174,1.050156 -0.732665,0.595686 -1.678505,0.932594 -2.711941,0.965969 -0.290872,0.01 -0.620396,0.002 -0.732273,-0.01605 z m 1.267962,-0.166776 c 0.826331,-0.134122 1.572184,-0.475292 2.230672,-1.020383 0.501403,-0.415057 0.558319,-0.467453 0.467839,-0.430667 -0.03357,0.01365 -0.289877,0.11899 -0.569545,0.234146 -0.328824,0.135347 -0.678276,0.243667 -0.988875,0.306465 -0.264198,0.05341 -0.519011,0.117825 -0.566268,0.143113 -0.241841,0.129405 -0.689316,0.245225 -1.02815,0.266024 -0.430776,0.02652 -0.985784,-0.06306 -1.969316,-0.317711 -0.375562,-0.09723 -0.666841,-0.152245 -0.726667,-0.137213 -0.0981,0.02455 -0.09851,0.02653 -0.02422,0.109236 0.176586,0.196196 0.855121,0.57641 1.255531,0.703528 0.55738,0.17695 1.348251,0.236102 1.918872,0.143475 z m -0.488452,-0.835408 c 0.03185,-0.04333 0.05447,-0.180361 0.05447,-0.32766 v -0.253188 l -0.294952,-0.0272 c -0.16222,-0.01485 -0.377326,-0.0209 -0.478012,-0.01365 l -0.183052,0.01365 -0.01205,0.227642 c -0.01109,0.206012 0,0.240349 0.112788,0.361255 0.124168,0.132939 0.126436,0.1335 0.43556,0.113649 0.23872,-0.01525 0.323348,-0.03718 0.365213,-0.09441 z m 0.97358,-0.06339 c 0.30809,-0.134163 0.342021,-0.177913 0.342021,-0.441195 0,-0.126296 -0.01967,-0.249138 -0.04329,-0.272956 -0.04323,-0.04323 -0.45348,0.01987 -0.688971,0.105768 -0.05594,0.02057 -0.170346,0.04851 -0.254246,0.0624 l -0.152567,0.02521 6.11e-4,0.211752 c 7.34e-4,0.246486 0.02024,0.286029 0.183391,0.373805 0.144981,0.07796 0.330085,0.05838 0.613077,-0.06481 z m -2.042422,0.0042 c 0.0348,0 0.04913,-0.08635 0.04755,-0.286292 l -0.0022,-0.286295 -0.305105,0.01168 -0.305104,0.01167 0.01365,0.142392 c 0.0072,0.07834 0.03489,0.186703 0.06101,0.240879 0.04843,0.100533 0.288551,0.214303 0.386434,0.18315 0.02986,-0.0097 0.0766,-0.01726 0.103963,-0.01726 z m -0.705079,-0.166996 c 0.02556,-0.048 0.03444,-0.146364 0.01987,-0.223759 -0.02422,-0.128844 -0.03648,-0.138116 -0.183894,-0.138116 -0.162861,0 -0.285831,0.08081 -0.285831,0.187827 0,0.09588 0.190397,0.259689 0.30182,0.259689 0.0622,0 0.120054,-0.03347 0.14795,-0.08565 z m 3.903159,-0.209826 c 0.139922,-0.06415 0.284769,-0.196117 0.284769,-0.259457 0,-0.02886 -0.03151,-0.118729 -0.07012,-0.199648 -0.06793,-0.142512 -0.07586,-0.146465 -0.25425,-0.12778 -0.242601,0.02554 -0.580943,0.108552 -0.630055,0.154833 -0.04816,0.04542 -0.02921,0.363776 0.02556,0.430221 0.07845,0.09515 0.43845,0.09616 0.644177,0.0019 z m -4.684685,-0.02436 c 0.297936,-0.209828 0.429694,-0.24559 1.069874,-0.29031 0.445902,-0.03118 0.735313,-0.03118 1.011179,2.47e-4 0.536267,0.06086 0.815241,0.02322 1.810336,-0.245226 0.485007,-0.13077 0.793445,-0.169323 1.356738,-0.169564 0.298701,-1.23e-4 0.527542,-0.01525 0.508523,-0.03373 -0.08571,-0.08311 -0.514663,-0.20714 -0.857303,-0.247911 -0.499242,-0.05942 -1.115209,0.0035 -1.679209,0.171712 -0.635938,0.189594 -0.650271,0.191521 -0.999255,0.134364 -0.443109,-0.07255 -0.95424,-0.06973 -1.249806,0.0071 -0.43293,0.112186 -0.863609,0.3712 -1.048161,0.630377 -0.09816,0.137836 -0.0754,0.150579 0.0771,0.0432 z m 5.732239,-0.316516 c 0.184576,-0.08204 0.335625,-0.16242 0.335625,-0.178636 0,-0.01626 -0.04121,-0.04054 -0.09153,-0.05405 -0.132156,-0.03542 -0.957929,-0.03118 -0.980003,0.0049 -0.01031,0.01686 0.01168,0.09441 0.04868,0.172536 0.04781,0.100895 0.102586,0.149576 0.18909,0.168099 0.06701,0.01424 0.130973,0.02852 0.142191,0.03118 0.01121,0.0028 0.171371,-0.06198 0.355968,-0.144016 z m -4.424144,-2.522924 c -0.59852,-0.09424 -0.952571,-0.252159 -1.128449,-0.503271 -0.07428,-0.106028 -0.03847,-0.09134 0.183913,0.07564 0.277139,0.208071 1.113425,0.351334 1.492938,0.255774 0.254514,-0.06409 0.467594,-0.211551 0.621786,-0.430298 0.142692,-0.20243 0.400753,-0.352949 0.770068,-0.449145 0.267915,-0.06981 0.599754,-0.0816 0.561682,-0.01987 -0.01385,0.02224 -0.05811,0.04069 -0.09846,0.04069 -0.109213,0 -0.649406,0.178235 -0.848448,0.279958 -0.100451,0.05136 -0.233049,0.17119 -0.313928,0.283739 -0.248939,0.346509 -0.767353,0.541545 -1.241111,0.466931 z m 2.888407,-0.884228 c 0,-0.01385 0.09744,-0.06848 0.216528,-0.121157 0.11909,-0.05267 0.258096,-0.148552 0.308886,-0.21308 0.08124,-0.103173 0.09069,-0.154493 0.07843,-0.425593 -0.01168,-0.259621 -0.03118,-0.330946 -0.123545,-0.451943 -0.06028,-0.07901 -0.1739,-0.174201 -0.252523,-0.211489 -0.07862,-0.03733 -0.15397,-0.08565 -0.167438,-0.107407 -0.08298,-0.134262 0.425741,0.116941 0.545728,0.269474 0.120394,0.153029 0.179539,0.407334 0.153629,0.660271 -0.02719,0.265329 -0.103738,0.388853 -0.304539,0.491278 -0.161436,0.08234 -0.455185,0.153108 -0.455185,0.109638 z m 10.757709,-2.510186 c -0.01525,-0.02455 -0.03696,-0.159228 -0.04817,-0.298934 l -0.02024,-0.254016 0.401725,-0.437052 c 0.220941,-0.240381 0.425972,-0.48263 0.455612,-0.538341 0.03118,-0.05842 0.05978,-0.276444 0.06776,-0.514966 0.02156,-0.637837 0.09078,-1.057723 0.269904,-1.634127 0.09041,-0.290873 0.183354,-0.592935 0.206579,-0.67125 0.145863,-0.492082 0.523593,-0.90826 1.046595,-1.153163 0.505957,-0.236931 1.091814,-0.145601 1.392563,0.217062 0.129585,0.156277 0.341523,0.56094 0.31018,0.592281 -0.01109,0.01109 -0.08818,-0.09146 -0.171954,-0.227212 -0.106076,-0.171812 -0.221238,-0.292533 -0.379105,-0.397266 -0.217823,-0.144518 -0.240546,-0.150418 -0.575928,-0.149415 -0.314888,9.3e-4 -0.374758,0.01425 -0.609961,0.136109 -0.300726,0.155758 -0.643565,0.481676 -0.754131,0.716924 -0.154071,0.327828 -0.476284,1.435548 -0.532582,1.830941 -0.03185,0.223763 -0.05826,0.56759 -0.05868,0.76409 -4.06e-4,0.205781 -0.02388,0.412882 -0.05553,0.488416 -0.03018,0.07213 -0.228638,0.323682 -0.441111,0.558975 -0.475392,0.526478 -0.494732,0.560811 -0.459626,0.816041 0.02688,0.19489 0.01224,0.245855 -0.04379,0.154934 z m 0.755237,-0.107231 c 0,-0.02422 0.06506,-0.111266 0.144578,-0.193167 0.144237,-0.148512 0.1452,-0.148812 0.401656,-0.121358 0.306997,0.03285 0.507451,-0.04034 0.85618,-0.312701 0.237097,-0.185179 0.330848,-0.343251 0.291536,-0.491679 -0.01323,-0.0505 -0.0024,-0.210823 0.02455,-0.356247 l 0.04882,-0.264431 0.02722,0.244095 c 0.01485,0.134264 0.0292,0.334726 0.03151,0.445506 0.0042,0.193869 -0.0042,0.209893 -0.2295,0.42819 -0.355772,0.344912 -0.840657,0.547957 -1.095994,0.458945 -0.134082,-0.04673 -0.274915,-0.005 -0.409211,0.121079 -0.05035,0.0473 -0.09155,0.06609 -0.09155,0.04174 z m 0.894997,-2.550709 c -0.05593,-0.07571 -0.169565,-0.179739 -0.252524,-0.231157 -0.204951,-0.127058 -0.165632,-0.141748 0.08772,-0.03283 0.1622,0.06976 0.222534,0.121861 0.26838,0.231558 0.06817,0.163142 0.06976,0.172674 0.02854,0.171149 -0.01686,-6.12e-4 -0.07626,-0.06306 -0.132237,-0.138758 z m -19.377637,2.908458 c 0.318937,-0.05547 1.184744,-0.343291 1.477654,-0.491224 0.578749,-0.2923 0.974457,-0.794825 1.094491,-1.389963 0.06538,-0.324113 0.02688,-1.620072 -0.05279,-1.773987 -0.101348,-0.196036 -0.255442,-0.357484 -0.476426,-0.499292 -0.20588,-0.132134 -0.392199,-0.177551 -1.483207,-0.36161 -1.026098,-0.173096 -2.494737,-0.217754 -3.21129,-0.09764 -0.223759,0.03753 -0.422718,0.08209 -0.442155,0.09907 -0.05935,0.05178 0.09933,0.475684 0.268346,0.716957 0.08773,0.125191 0.194311,0.316052 0.236898,0.424141 0.112787,0.286127 0.176166,1.322814 0.147126,2.406813 l -0.02388,0.886484 0.104399,0.03971 c 0.307526,0.116905 1.776427,0.14215 2.360666,0.04058 z m -0.112423,-3.054669 c -0.295216,-0.03453 -0.644066,-0.167338 -0.751601,-0.286161 -0.104199,-0.11516 -0.01686,-0.279594 0.267021,-0.502594 0.326634,-0.256601 0.563473,-0.348877 1.026586,-0.399925 0.726318,-0.08005 1.447246,0.07803 1.646338,0.360986 0.157805,0.224325 0.220343,0.379864 0.180963,0.450221 -0.06641,0.11871 -0.832322,0.337824 -1.328437,0.380063 -0.502413,0.04279 -0.656115,0.0424 -1.040866,-0.0026 z m 0.08483,-0.12461 c 0,-0.02455 -0.02952,-0.145942 -0.06548,-0.269809 -0.03682,-0.126656 -0.05547,-0.28689 -0.04261,-0.366154 0.02222,-0.13629 0.01927,-0.140022 -0.08708,-0.113849 -0.114417,0.0282 -0.437457,0.279393 -0.51275,0.398753 -0.06418,0.101761 0.04426,0.189051 0.370193,0.298004 0.326635,0.109214 0.337717,0.110948 0.337717,0.05308 z m 0.288551,-0.11385 c -0.0767,-0.05899 -0.101947,-0.123646 -0.116434,-0.29837 -0.01109,-0.131272 0.0015,-0.260484 0.03018,-0.313929 0.04259,-0.07961 0.03938,-0.089 -0.02586,-0.07614 -0.06415,0.01265 -0.07458,0.05625 -0.07458,0.312371 0,0.263736 0.01109,0.306531 0.09603,0.375401 0.05282,0.04276 0.116905,0.07733 0.142391,0.07683 0.02554,-4.99e-4 0.0022,-0.03476 -0.05158,-0.0762 z m 0.748839,0.03643 c 0.01385,-0.02222 -0.0034,-0.04069 -0.0383,-0.04069 -0.03486,0 -0.06341,0.01827 -0.06341,0.04069 0,0.02223 0.01726,0.04068 0.0383,0.04068 0.0209,0 0.0496,-0.01827 0.06343,-0.04068 z m 0.798532,-0.108411 c 0.176128,-0.05965 0.320166,-0.128281 0.320066,-0.152564 -5.15e-4,-0.149938 -0.31406,-0.468121 -0.524497,-0.532221 -0.08839,-0.02688 -0.09459,-0.02057 -0.0666,0.0665 0.07544,0.234708 0.07096,0.400311 -0.01485,0.545619 -0.130811,0.221704 -0.144237,0.218289 0.285763,0.07268 z m -0.486016,-0.115325 c 0.02556,-0.05593 0.06171,-0.101709 0.08047,-0.101709 0.01887,0 0.03413,-0.0549 0.03413,-0.122042 0,-0.06712 -0.01525,-0.12204 -0.03413,-0.12204 -0.01886,0 -0.05502,-0.04577 -0.08047,-0.10171 -0.02555,-0.05593 -0.07391,-0.10171 -0.107643,-0.10171 -0.05064,0 -0.04727,0.02289 0.01928,0.132236 0.0979,0.160534 0.102422,0.285332 0.01525,0.418416 -0.04157,0.06346 -0.04873,0.100287 -0.01967,0.100287 0.02556,0 0.06707,-0.04577 0.09258,-0.10171 z m -3.922945,1.88148 c -0.0209,-1.624093 -0.0252,-1.651329 -0.336954,-2.125463 -0.102865,-0.156539 -0.216331,-0.389946 -0.252127,-0.518691 -0.03579,-0.128743 -0.07884,-0.234075 -0.09572,-0.234075 -0.08571,0 -0.409132,0.170146 -0.537283,0.282642 -0.241411,0.211952 -0.293892,0.414717 -0.290176,1.120864 0.0035,0.678692 0.05242,0.936393 0.28898,1.525263 0.168062,0.418365 0.299765,0.648612 0.495618,0.866628 0.177913,0.198041 0.600734,0.516858 0.68545,0.516858 0.05315,0 0.05847,-0.180561 0.04222,-1.434032 z m 11.929847,0.802158 c 0.615044,-0.06054 1.280006,-0.178154 1.525567,-0.26977 0.824346,-0.307561 1.074682,-0.543436 1.223499,-1.152771 0.107196,-0.438813 0.08708,-1.31902 -0.04535,-1.988378 -0.137213,-0.693339 -0.256735,-0.919443 -0.567911,-1.074318 -0.502209,-0.249934 -2.028543,-0.316682 -2.949425,-0.128925 -0.325506,0.06635 -2.548671,0.728404 -2.725447,0.811615 -0.306794,0.144417 -0.390645,0.200431 -0.535825,0.357933 l -0.166574,0.180703 0.0219,0.371477 c 0.02488,0.421782 0.153992,0.842259 0.450806,1.468855 0.147929,0.312271 0.237097,0.43916 0.470383,0.66921 0.702703,0.693012 1.671344,0.914544 3.298336,0.754352 z m -1.496769,-2.978555 c -0.417893,-0.0097 -0.545744,-0.02556 -0.562676,-0.06974 -0.02754,-0.07152 0.264399,-0.471377 0.441799,-0.605302 0.779065,-0.588131 2.059714,-0.810482 2.739778,-0.475687 0.247712,0.121941 0.464479,0.3201 0.464479,0.424569 0,0.07096 -0.163042,0.212647 -0.284767,0.247448 -0.05593,0.01585 -0.279727,0.109732 -0.497343,0.208335 -0.692076,0.313563 -0.652686,0.308952 -2.301265,0.270369 z m 0.563004,-0.210123 c -0.0229,-0.04277 -0.06334,-0.08504 -0.08982,-0.09384 -0.0272,-0.0091 -0.05603,-0.12503 -0.06638,-0.267982 -0.01109,-0.149815 -0.03689,-0.251926 -0.06432,-0.251926 -0.06884,0 -0.434734,0.268183 -0.578868,0.424284 -0.242736,0.262907 -0.237296,0.267318 0.332337,0.267318 0.488346,0 0.507011,-0.0031 0.467029,-0.07782 z m 1.291753,-0.115419 c 0.05624,-0.0487 0.09069,-0.145 0.109119,-0.304773 0.02622,-0.226614 0.02289,-0.237228 -0.107125,-0.355966 -0.17958,-0.164006 -0.278499,-0.162059 -0.139823,0.0028 0.08376,0.09956 0.105321,0.168501 0.105321,0.336742 0,0.125655 -0.02586,0.24831 -0.06332,0.301985 -0.07557,0.107892 -0.01967,0.119133 0.09586,0.01927 z m -1.104255,-0.04386 c -0.07012,-0.07749 -0.08473,-0.398266 -0.01987,-0.438313 0.04678,-0.02886 0.04276,-0.09754 -0.0057,-0.09754 -0.04881,0 -0.163784,0.215502 -0.163784,0.306996 0,0.08427 0.153429,0.303247 0.212482,0.303247 0.02422,0 0.01385,-0.03347 -0.02322,-0.07438 z m 1.704765,-0.103279 c 0.512707,-0.204286 0.538794,-0.230692 0.373853,-0.378225 -0.164709,-0.147329 -0.383369,-0.257733 -0.585011,-0.295418 -0.10893,-0.02024 -0.203391,-0.03151 -0.209894,-0.02521 -0.0066,0.0066 0.02788,0.07903 0.0762,0.161136 0.07499,0.127057 0.08399,0.185339 0.06065,0.391603 -0.01485,0.1333 -0.01168,0.24234 0.0076,0.24234 0.01927,0 0.143716,-0.04333 0.276608,-0.09628 z m 6.722927,1.082815 c 0.02921,-0.0839 0.06274,-0.198323 0.07445,-0.254248 0.03463,-0.16511 0.225949,-0.749133 0.259887,-0.793296 0.01725,-0.02224 0.05217,-0.123083 0.07762,-0.223761 0.05547,-0.219082 0.06695,-0.247513 0.281583,-0.697312 0.141548,-0.29668 0.219847,-0.400536 0.501761,-0.665753 0.183715,-0.172837 0.376041,-0.333377 0.427388,-0.35677 0.12162,-0.05539 0.118128,-0.103433 -0.01109,-0.152527 -0.16276,-0.06186 -0.607564,-0.04461 -1.075416,0.0417 -0.409031,0.07548 -0.606858,0.122041 -1.169602,0.275448 l -0.254249,0.0693 v 0.279759 c 0,0.238358 0.02422,0.334256 0.163284,0.647665 0.182028,0.410083 0.296645,0.828158 0.366052,1.334983 0.047,0.343406 0.0822,0.447862 0.194108,0.576148 0.08705,0.09977 0.103892,0.09144 0.164086,-0.08138 z M 73.503726,57.965697 c 0.273288,-0.0575 0.522712,-0.139139 1.019133,-0.333587 0.105261,-0.04124 0.202562,-0.08616 0.21626,-0.09987 0.01365,-0.01365 0.006,-0.159471 -0.01686,-0.323948 -0.05324,-0.381707 -0.04373,-0.391436 0.565204,-0.578235 1.333092,-0.408947 2.054888,-0.605459 2.689516,-0.732227 1.267534,-0.253187 1.684442,-0.28082 2.241359,-0.148553 0.799646,0.189915 1.421731,0.476974 1.948979,0.899346 0.105025,0.08413 0.110581,0.08433 0.447499,0.01626 0.187627,-0.03788 0.624918,-0.160552 0.97173,-0.272659 0.346814,-0.112104 0.819528,-0.255011 1.050475,-0.31758 0.230958,-0.06258 0.429159,-0.123002 0.440472,-0.134322 0.02786,-0.02788 -0.09785,-0.687392 -0.1741,-0.911926 -0.03389,-0.09988 -0.135708,-0.339989 -0.226248,-0.53358 -0.09054,-0.193608 -0.227874,-0.489293 -0.305204,-0.657106 -0.07733,-0.167799 -0.229965,-0.480481 -0.339176,-0.694816 -0.199347,-0.391214 -0.315091,-0.752822 -0.407675,-1.273455 -0.03317,-0.18574 -0.122442,-0.422996 -0.265694,-0.704885 -0.268611,-0.528679 -0.325306,-0.706316 -0.378763,-1.187186 -0.03784,-0.340372 -0.06924,-0.437421 -0.28782,-0.889609 -0.134946,-0.279164 -0.245623,-0.528289 -0.245988,-0.553631 -0.0022,-0.160031 -0.07269,-0.146685 -0.592293,0.111927 -0.730607,0.363653 -1.401499,0.619628 -2.397197,0.914637 -0.710965,0.210656 -0.688527,0.07896 0.09164,-0.537917 0.319468,-0.252587 0.434352,-0.428087 0.523158,-0.799148 0.106357,-0.444476 0.08894,-0.456887 -0.218157,-0.155356 -0.602415,0.5915 -1.230431,0.812649 -2.481588,0.873865 -0.488929,0.02388 -0.539032,0.01987 -0.539032,-0.04224 0,-0.03774 0.0229,-0.07518 0.05086,-0.08324 0.02788,-0.008 0.261379,-0.06469 0.51869,-0.125894 0.462569,-0.110004 1.09713,-0.366349 1.160427,-0.468764 0.02455,-0.03968 0.01323,-0.04492 -0.04518,-0.0209 -0.04282,0.01766 -0.206014,0.06831 -0.362639,0.112694 -0.399354,0.113236 -1.680353,0.145803 -2.332291,0.05935 -0.253518,-0.03361 -0.471968,-0.07216 -0.485468,-0.08565 -0.05939,-0.05938 0.08341,-0.109521 0.420584,-0.147629 0.426964,-0.04826 0.629719,-0.09836 0.84702,-0.209197 0.120756,-0.06161 0.145241,-0.08978 0.101957,-0.117166 -0.0768,-0.04863 -0.90846,-0.04632 -1.345326,0.0035 -0.549412,0.06296 -1.609319,0.340421 -2.573401,0.673673 -0.449977,0.155557 -0.511571,0.16537 -0.511571,0.08157 0,-0.101349 0.859156,-0.578302 1.38318,-0.767844 0.0357,-0.01284 0.01726,-0.02356 -0.04421,-0.02521 -0.133559,-0.004 -1.124575,0.245954 -1.420316,0.358338 -0.123084,0.04678 -0.333591,0.153931 -0.467839,0.238127 -0.50093,0.314192 -0.894494,0.564838 -1.152156,0.733744 -0.155817,0.102163 -0.280423,0.159008 -0.301787,0.137674 -0.05035,-0.05035 0.06758,-0.482653 0.15941,-0.584316 0.04074,-0.04512 0.179578,-0.156058 0.308523,-0.246551 0.128943,-0.09049 0.225582,-0.173398 0.21477,-0.184214 -0.02952,-0.02952 -1.358212,0.736431 -1.648889,0.950418 -0.377599,0.277968 -0.588382,0.483981 -0.943998,0.922623 -0.17685,0.218154 -0.339557,0.396646 -0.361534,0.396646 -0.09474,0 -0.07726,-0.137374 0.04528,-0.35547 0.212547,-0.378391 0.627272,-0.992055 0.811382,-1.200608 0.181786,-0.205914 0.162841,-0.265131 -0.02754,-0.0859 -0.06269,0.05904 -0.307525,0.268247 -0.544079,0.464891 -0.236566,0.196658 -0.504608,0.454986 -0.595666,0.574075 -0.229167,0.29973 -0.480056,0.817689 -0.6018,1.242445 -0.134002,0.467486 -0.181727,0.581012 -0.244363,0.581012 -0.08925,0 -0.101451,-0.115112 -0.04224,-0.397853 0.0892,-0.425856 0.123845,-0.79909 0.07113,-0.766514 -0.07372,0.04559 -0.442201,0.680483 -0.534083,0.920275 -0.125694,0.328061 -0.209032,0.85571 -0.1796,1.13723 0.01385,0.132036 0.01205,0.273423 -0.0035,0.314194 -0.02688,0.06899 -0.03409,0.06773 -0.104341,-0.01827 -0.04154,-0.0509 -0.133721,-0.279726 -0.204953,-0.508522 -0.108411,-0.348429 -0.126256,-0.460845 -0.109873,-0.692033 0.01927,-0.273756 0.01886,-0.275547 -0.06665,-0.218918 -0.056,0.03708 -0.09564,0.119553 -0.113188,0.235339 -0.03335,0.220145 -0.0034,0.947559 0.05248,1.278441 0.0343,0.202795 0.02986,0.275117 -0.02521,0.412734 -0.07544,0.188489 -0.07147,0.211219 0.165971,0.948315 0.07569,0.234943 0.173337,0.601077 0.217061,0.813638 0.09871,0.480046 0.175525,1.629666 0.139902,2.093436 -0.01566,0.204852 -0.01121,0.347472 0.01109,0.347472 0.02057,0 0.137775,-0.07524 0.260153,-0.167236 0.520624,-0.391191 0.852654,-0.489737 1.99241,-0.591339 0.77997,-0.06954 0.807804,-0.06925 1.657041,0.01566 0.475062,0.04747 0.882386,0.09783 0.905171,0.111927 0.0229,0.01385 0.04144,0.168722 0.04144,0.343672 0,0.358834 0.0057,0.367307 0.310579,0.466748 0.661101,0.215568 1.633724,0.287987 2.217901,0.165109 z M 65.89337,55.688836 c -0.02356,-0.111867 -0.0693,-0.331542 -0.101411,-0.488183 -0.07451,-0.363596 -0.173839,-0.733651 -0.245655,-0.915339 -0.190416,-0.481757 -0.226215,-0.753796 -0.120415,-0.915267 0.0554,-0.08454 0.0577,-0.129747 0.01585,-0.313862 -0.02688,-0.118306 -0.0572,-0.489686 -0.06756,-0.82531 -0.01766,-0.566831 -0.01265,-0.619793 0.06621,-0.744743 0.135587,-0.214607 0.457472,-0.303213 0.519004,-0.142892 0.01205,0.03151 -0.0083,0.153007 -0.04512,0.270238 -0.05348,0.170027 -0.05777,0.239583 -0.02123,0.344051 0.05594,0.160472 0.102916,0.167296 0.131071,0.01886 0.09113,-0.479408 0.291736,-0.948992 0.572151,-1.339321 0.236468,-0.329155 0.473547,-0.395224 0.473547,-0.131976 0,0.110275 0.02322,0.08191 0.166393,-0.204451 0.09153,-0.182851 0.255641,-0.439717 0.364728,-0.570783 0.183411,-0.220409 0.694726,-0.659385 1.164469,-0.999748 0.582769,-0.422255 0.732169,-0.278863 0.277468,0.266325 -0.14544,0.17436 -0.26443,0.329154 -0.26443,0.343964 0,0.01485 0.105261,-0.05264 0.23391,-0.149917 0.282944,-0.213908 1.306153,-0.850639 1.678123,-1.044264 0.03357,-0.01766 0.238226,-0.126235 0.454805,-0.241675 0.403094,-0.214871 0.587045,-0.257931 0.629472,-0.147388 0.03118,0.08157 -0.07589,0.196759 -0.352006,0.378126 -0.40146,0.263702 -0.83244,0.617541 -0.906195,0.743982 l -0.07223,0.123806 0.23494,-0.160091 c 0.691083,-0.470892 1.143926,-0.740937 1.475742,-0.880036 0.326003,-0.136651 1.216699,-0.331079 1.789998,-0.390684 0.190196,-0.01987 0.473141,-0.06493 0.628786,-0.100328 0.314258,-0.07147 0.388257,-0.06112 0.388257,0.05421 0,0.06381 -0.06161,0.09404 -0.335624,0.164507 -0.46012,0.118328 -0.973908,0.281649 -1.047554,0.33292 -0.07053,0.04911 -0.07885,0.05091 0.447502,-0.09825 0.342653,-0.09714 0.524797,-0.139602 0.996701,-0.232452 0.307261,-0.06044 1.436498,-0.09867 1.791713,-0.06061 0.436332,0.0467 0.398708,0.186402 -0.11913,0.442278 l -0.280125,0.138397 0.382523,0.02854 c 0.520642,0.03905 1.140078,-0.03397 1.577221,-0.185841 0.578454,-0.201003 0.613545,-0.20903 0.678069,-0.155496 0.138195,0.114675 5.7e-4,0.260949 -0.529927,0.563091 -0.312767,0.178153 -0.346939,0.207571 -0.241043,0.207571 0.141165,0 0.61565,-0.154191 0.925411,-0.300725 0.223991,-0.105956 0.279626,-0.152906 0.647272,-0.546291 0.129206,-0.138276 0.249937,-0.251363 0.268281,-0.251363 0.01827,0 0.06758,0.03781 0.109413,0.08402 0.09627,0.106358 0.08982,0.355651 -0.01766,0.683085 -0.1393,0.424335 -0.251893,0.582491 -0.62652,0.880055 -0.106842,0.08485 -0.187244,0.161357 -0.178614,0.169986 0.01686,0.01685 0.692547,-0.208234 1.357264,-0.452419 0.228172,-0.08382 0.701525,-0.295718 1.051917,-0.470847 0.350391,-0.175125 0.661207,-0.309186 0.690703,-0.297872 0.02952,0.01121 0.06619,0.09693 0.0815,0.190295 0.01525,0.09333 0.135247,0.38939 0.266457,0.65789 0.178816,0.365913 0.244728,0.549317 0.263138,0.732274 0.04678,0.464879 0.149013,0.854483 0.298968,1.139091 0.210259,0.399086 0.324976,0.679456 0.370303,0.904845 0.104106,0.517851 0.167137,0.772314 0.219119,0.884443 0.03118,0.06752 0.121558,0.262178 0.200571,0.43257 0.07901,0.170407 0.274484,0.582303 0.434381,0.915339 0.159871,0.333041 0.315654,0.660445 0.346202,0.727571 0.08516,0.187165 0.173337,0.506878 0.201963,0.732272 0.05215,0.41036 0.03251,0.387535 0.275547,0.318474 0.306133,-0.08696 0.796874,-0.215269 0.986671,-0.257963 0.08951,-0.02024 0.387443,-0.03743 0.662096,-0.03841 0.663584,-0.0024 0.902314,0.07849 1.376748,0.466222 l 0.126796,0.103633 0.36138,-0.120195 c 0.413724,-0.137574 0.9787,-0.261015 1.035112,-0.226147 0.0209,0.01283 0.03832,-3.63e-4 0.03846,-0.02952 0,-0.0292 0.03085,-0.108198 0.06827,-0.175285 0.0559,-0.100286 0.07301,-0.299829 0.09603,-1.11875 0.01566,-0.551376 0.04999,-1.079933 0.0772,-1.182987 0.09652,-0.365542 -0.01867,-2.796223 -0.161798,-3.414051 -0.410965,-1.774048 -0.521852,-2.120039 -1.07149,-3.343352 -0.239219,-0.532408 -0.262211,-0.684148 -0.113355,-0.747824 0.05617,-0.02389 0.05129,-0.03317 -0.0292,-0.0544 -0.0628,-0.01666 -0.112587,-0.07375 -0.142391,-0.163385 -0.04441,-0.13366 -0.09096,-0.17711 -0.23839,-0.222564 -0.06111,-0.01886 -0.173598,-0.226682 -0.376719,-0.696061 -0.263435,-0.608753 -0.69592,-1.472127 -0.880457,-1.757635 -0.07527,-0.116446 -0.264036,-0.409358 -0.419503,-0.65091 -1.103462,-1.714526 -2.001299,-2.521637 -3.602457,-3.238421 -1.013493,-0.453706 -2.671225,-0.872227 -3.824087,-0.965451 -0.302051,-0.02455 -0.835451,-0.04408 -1.185316,-0.04369 -0.664573,7.5e-4 -2.690949,0.102824 -3.293339,0.165911 -0.273855,0.02854 -0.485083,0.01967 -0.976366,-0.04151 -0.796521,-0.09918 -0.762691,-0.100245 -0.649192,0.02057 0.05398,0.05742 0.08333,0.126356 0.06941,0.162722 -0.0209,0.05447 -0.152164,0.0631 -0.96117,0.0631 -0.597515,0 -0.93696,0.01465 -0.93696,0.04069 0,0.02224 0.01827,0.04069 0.04068,0.04069 0.07758,0 0.04025,0.161135 -0.05086,0.219351 -0.0893,0.05706 -0.84055,0.228172 -1.001784,0.228172 -0.04452,0 -0.0917,0.03384 -0.104836,0.0752 -0.03216,0.101049 -0.346629,0.236169 -1.019006,0.4378 -0.195093,0.05848 -0.222499,0.07606 -0.136451,0.08752 0.05922,0.008 0.139863,0.04989 0.179198,0.09338 0.06748,0.07458 0.06761,0.08342 0.0022,0.155716 -0.08606,0.09507 -0.41699,0.216895 -0.909641,0.334838 -0.35487,0.08495 -0.372793,0.09424 -0.311607,0.161858 0.08338,0.09212 0.04526,0.215136 -0.0974,0.314195 -0.0602,0.04182 -0.364319,0.209229 -0.675803,0.372023 -0.655215,0.342435 -0.740102,0.392425 -0.901316,0.530806 -0.237957,0.204254 -0.342691,0.364796 -0.342691,0.525285 0,0.102607 -0.02754,0.178113 -0.08293,0.228339 -0.07301,0.06609 -0.108257,0.06981 -0.294955,0.03118 -0.237628,-0.04908 -0.344177,-0.01485 -0.510627,0.163222 l -0.09521,0.101906 0.142289,0.06756 c 0.159771,0.07583 0.253618,0.251526 0.215502,0.403463 -0.02556,0.101153 -0.24987,0.268579 -0.360095,0.268579 -0.04613,0 -0.06227,0.05385 -0.0661,0.220375 -0.0057,0.243202 -0.06143,0.430521 -0.128283,0.430521 -0.02388,0 -0.113237,0.07569 -0.198603,0.1682 -0.133501,0.144579 -0.1736,0.16551 -0.285566,0.149092 -0.111147,-0.01625 -0.139,-0.0022 -0.189895,0.09623 -0.04018,0.07767 -0.09129,0.115336 -0.156479,0.115336 h -0.09684 l 0.0063,0.86449 c 0.006,0.821926 0.0018,0.874427 -0.08675,1.066408 -0.05119,0.111064 -0.122683,0.234642 -0.158868,0.274616 -0.0881,0.09738 -0.251229,0.09186 -0.361981,-0.01224 l -0.09031,-0.08483 -0.02854,0.08957 c -0.01566,0.04927 -0.0057,0.236997 0.02256,0.417226 0.05006,0.321858 0.04932,0.32899 -0.04233,0.403209 -0.08737,0.07077 -0.09163,0.09527 -0.067,0.386595 0.01566,0.186182 0.05076,0.338098 0.08725,0.378405 0.03352,0.03703 0.06095,0.114817 0.06095,0.172877 0,0.08454 -0.0282,0.114876 -0.142391,0.152504 -0.129848,0.04288 -0.14239,0.06075 -0.14239,0.203193 0,0.176248 0.128843,0.507371 0.246219,0.632741 0.04289,0.04583 0.08917,0.139138 0.102824,0.207371 0.02123,0.106381 0.0028,0.14478 -0.129207,0.269377 l -0.154031,0.145341 0.04677,0.298205 c 0.0442,0.281848 0.17109,0.605324 0.308457,0.78638 0.04949,0.06522 0.07194,0.07126 0.113295,0.03052 0.06735,-0.06641 0.216927,-0.06507 0.272959,0.0024 0.04918,0.05922 0.29001,0.635262 0.292429,0.699311 8.37e-4,0.02224 0.0369,0.113909 0.08012,0.203394 0.04323,0.08951 0.07921,0.187425 0.07998,0.21759 7.61e-4,0.03019 0.02753,0.112563 0.0598,0.18305 0.06904,0.151482 0.552455,1.626385 0.672028,2.05041 0.300857,1.066829 0.331079,1.155379 0.602584,1.763699 l 0.192505,0.43137 0.01283,-0.350006 c 0.0072,-0.192505 -0.0063,-0.441544 -0.03018,-0.553417 z"
         id="path27257"
         transform="translate(-21.795496,96.897751)" /><path
         style="opacity:1;fill:#808080;fill-opacity:1;stroke-width:0;stroke-dasharray:none"
         d="m 279.04571,211.7346 c -0.23246,-0.59237 -1.59769,-4.68432 -3.03385,-9.09321 -2.97358,-9.12872 -3.38273,-10.06682 -4.39056,-10.06682 -1.35308,0 -2.34463,-3.32923 -1.32659,-4.45415 0.569,-0.62875 0.55226,-0.7974 -0.24133,-2.43084 -0.82835,-1.70501 -0.83276,-1.76984 -0.15404,-2.26613 0.61527,-0.4499 0.65063,-0.70027 0.29611,-2.09697 -0.28754,-1.13283 -0.28786,-1.72429 -10e-4,-2.06978 0.22172,-0.26716 0.30551,-1.07488 0.18717,-1.80417 -0.18209,-1.1221 -0.11934,-1.29092 0.41778,-1.12389 1.54112,0.47925 2.30987,-1.29983 2.30987,-5.34558 0,-2.28907 0.13758,-3.02521 0.65248,-3.49119 0.35886,-0.32477 0.78009,-0.59974 0.93605,-0.61104 0.81457,-0.0591 2.13992,-1.33559 2.13992,-2.06112 0,-0.45333 0.41945,-1.2183 0.93212,-1.69992 1.07158,-1.0067 1.16564,-1.5791 0.36824,-2.24088 -0.86282,-0.71608 -0.008,-1.50881 1.33634,-1.23986 0.84335,0.16867 1.12846,0.063 1.3,-0.48189 0.57048,-1.81209 1.44456,-2.67292 4.33365,-4.26794 1.70579,-0.94174 3.25444,-2.04642 3.44145,-2.45484 0.20148,-0.44004 1.18887,-1.03495 2.42349,-1.46017 1.60688,-0.55343 2.11073,-0.90948 2.20262,-1.55648 0.0655,-0.4614 0.33071,-0.8389 0.58929,-0.8389 0.25858,0 1.29554,-0.41875 2.30435,-0.93055 1.00882,-0.51181 2.00199,-0.93219 2.20705,-0.9342 1.15194,-0.0112 3.16919,-0.8527 3.16919,-1.32196 0,-0.43363 0.66965,-0.54174 3.35561,-0.54174 2.43597,0 3.35558,-0.12773 3.35551,-0.46606 -7e-5,-0.34701 1.16662,-0.46831 4.56735,-0.47489 2.5121,-0.005 7.83917,-0.0606 11.83793,-0.12381 7.88678,-0.12471 10.74079,0.23152 16.56406,2.0675 5.68671,1.79292 10.76117,4.89575 13.74929,8.40716 2.72001,3.19633 5.78213,8.01876 7.93074,12.48982 1.10733,2.30427 2.35111,4.52736 2.76396,4.9402 0.41284,0.41284 0.75062,1.05972 0.75062,1.4375 0,0.37778 0.67034,2.29118 1.48964,4.25201 0.81931,1.96082 2.02905,5.7204 2.68831,8.35462 1.1911,4.75925 1.19823,4.84362 1.13002,13.36493 -0.0378,4.71649 -0.20289,9.14868 -0.36695,9.8493 -0.28197,1.20411 -0.44288,1.31268 -2.93871,1.98271 l -2.6404,0.70885 -1.41079,-0.95739 c -1.21269,-0.82295 -1.81398,-0.95738 -4.28226,-0.95738 -1.57931,0 -3.6951,0.24985 -4.70175,0.55523 -1.00665,0.30538 -1.93706,0.55705 -2.06757,0.55927 -0.13052,0.002 -0.34448,-0.71069 -0.47548,-1.58424 -0.13099,-0.87355 -1.14505,-3.46867 -2.25345,-5.76695 -1.10841,-2.29827 -2.36538,-5.45478 -2.79327,-7.01446 -0.42789,-1.55968 -1.10624,-3.47923 -1.50745,-4.26566 -0.40121,-0.78643 -0.84301,-2.15833 -0.98178,-3.04868 -0.20051,-1.28643 -2.14692,-6.85554 -2.55754,-7.31768 -0.0519,-0.0584 -1.41678,0.50366 -3.03306,1.24905 -2.33803,1.07823 -6.64437,2.77202 -7.04766,2.77202 -0.0425,0 0.31928,-0.78345 0.80406,-1.74099 0.92832,-1.83367 1.16072,-4.00789 0.47377,-4.43245 -0.22419,-0.13856 -1.10503,0.41918 -1.95743,1.23941 -1.62258,1.56135 -2.84272,2.33091 -3.66917,2.31419 -0.26981,-0.005 -0.0249,-0.2986 0.54435,-0.65144 1.06075,-0.65754 1.23268,-1.8054 0.25576,-1.70752 -0.29974,0.03 -1.54497,0.32364 -2.76718,0.65247 -1.2222,0.32884 -3.06779,0.59116 -4.10129,0.58295 l -1.87911,-0.0149 1.0484,-0.56834 c 1.87823,-1.01819 1.02554,-1.44497 -3.11593,-1.55959 -2.25977,-0.0625 -3.97503,-0.27516 -4.12064,-0.51077 -0.43398,-0.70219 -8.49222,0.70742 -12.08124,2.11334 -0.61346,0.2403 -0.66305,0.20303 -0.27964,-0.21018 1.3047,-1.40613 -0.3181,-1.46884 -2.99515,-0.11574 -1.06978,0.54071 -2.82915,1.54739 -3.90972,2.23707 -2.29351,1.46385 -2.45187,1.50151 -2.13663,0.50828 0.72247,-2.2763 -5.07808,1.46466 -7.08405,4.56873 -0.6152,0.95196 -1.32007,1.66409 -1.56638,1.58251 -0.73196,-0.24244 -1.93738,0.99452 -2.90738,2.98347 -0.50005,1.02532 -0.91443,1.57061 -0.92084,1.21174 -0.0142,-0.79263 -1.57944,-0.89966 -2.20118,-0.15051 -0.61492,0.74094 -0.43859,9.37471 0.22961,11.24266 0.59496,1.6632 1.61591,6.99307 1.38398,7.225 -0.0819,0.0819 -0.3391,-0.33577 -0.57156,-0.92813 z"
         id="path33274"
         transform="matrix(0.26458333,0,0,0.26458333,-29.909227,96.897751)" /><path
         style="opacity:1;fill:#4d4d4d;fill-opacity:1;stroke-width:0;stroke-dasharray:none"
         d="m 355.70431,224.1732 c -0.10488,-0.46139 -0.36802,-1.6778 -0.58475,-2.70313 -0.21673,-1.02532 -0.74163,-2.82291 -1.16643,-3.99463 -0.4248,-1.17172 -0.6848,-2.35861 -0.57777,-2.63751 0.23224,-0.60522 5.18949,-1.75687 7.5624,-1.75687 h 1.68018 l -1.34187,1.17818 c -1.58002,1.38727 -2.67688,3.45669 -4.069,7.67689 -0.55807,1.69179 -1.08159,3.07597 -1.16338,3.07597 -0.0818,0 -0.23451,-0.3775 -0.33938,-0.8389 z"
         id="path33276"
         transform="matrix(0.26458333,0,0,0.26458333,-29.909227,96.897751)" /><path
         style="opacity:1;fill:#4d4d4d;fill-opacity:1;stroke-width:0;stroke-dasharray:none"
         d="m 364.44929,210.60045 c -1.10815,-0.75931 -1.72236,-0.875 -4.64557,-0.875 -1.85272,0 -3.95087,0.16699 -4.66254,0.3711 -1.63462,0.4688 -2.59526,0.18936 -2.36577,-0.68818 0.0955,-0.36519 -0.82717,-3.0019 -2.05036,-5.85935 -1.22321,-2.85744 -3.43865,-8.8586 -4.92322,-13.3359 -1.48457,-4.4773 -2.90377,-8.21904 -3.15378,-8.31498 -0.25001,-0.0959 -1.4436,0.27012 -2.65241,0.81346 -2.77591,1.24773 -6.85842,2.81611 -6.85842,2.63481 0,-0.0757 0.22561,-0.70346 0.50136,-1.39496 0.27574,-0.6915 0.53421,-1.97035 0.57437,-2.84187 0.0929,-2.01566 -0.52927,-2.07635 -2.55198,-0.24895 -1.40336,1.26785 -2.53549,1.43176 -2.1029,0.30444 0.25165,-0.65578 -0.19842,-0.64963 -2.75922,0.0377 -1.8549,0.49787 -6.05867,0.76366 -4.9402,0.31234 0.76838,-0.31005 0.52657,-1.21801 -0.37284,-1.39997 -1.71033,-0.34601 -7.25924,-0.74657 -9.78719,-0.7065 -1.43545,0.0228 -4.16188,0.44518 -6.05873,0.93871 -2.62881,0.68398 -3.44882,0.78154 -3.44882,0.41032 0,-1.21639 -3.1563,-0.12072 -7.73654,2.68565 -1.26693,0.77627 -1.58459,0.85455 -1.58459,0.3905 0,-1.61094 -3.67192,0.40757 -6.45348,3.54758 -0.9861,1.11318 -2.24445,2.28523 -2.79634,2.60455 -0.55188,0.31932 -1.50803,1.326 -2.12477,2.23707 -0.96792,1.42983 -1.29952,1.65649 -2.4235,1.65649 h -1.30214 l -0.0573,4.95273 c -0.0439,3.79626 0.11305,5.65435 0.67206,7.95744 1.09788,4.52317 0.6791,4.21838 -0.9576,-0.69693 -3.78913,-11.37946 -4.38491,-12.84573 -5.47343,-13.47045 -1.67497,-0.9613 -2.30761,-3.01691 -1.38377,-4.49621 0.35651,-0.57087 0.30834,-1.00925 -0.24596,-2.23848 -0.54871,-1.21681 -0.60353,-1.69838 -0.26879,-2.36103 0.23129,-0.45784 0.40024,-1.75522 0.37546,-2.88308 -0.0798,-3.63294 0.008,-4.1013 0.76884,-4.1013 0.38502,0 0.91088,-0.25405 1.16858,-0.56456 0.40463,-0.48755 1.03214,-4.59846 1.09404,-7.1673 0.0135,-0.55868 0.52211,-1.15113 1.53998,-1.79368 0.86102,-0.54354 1.74063,-1.48778 2.02911,-2.17822 0.28008,-0.67032 0.77059,-1.43567 1.09004,-1.70079 0.65302,-0.54196 0.78062,-2.08745 0.20188,-2.44513 -0.69013,-0.42653 0.0305,-0.92835 1.33305,-0.92835 0.8611,0 1.28295,-0.17449 1.28295,-0.53067 0,-0.92239 1.82812,-2.74956 3.98661,-3.98452 1.14584,-0.65558 2.62885,-1.67092 3.29556,-2.2563 0.66671,-0.58539 1.98323,-1.4054 2.92559,-1.82225 0.94236,-0.41685 1.88562,-1.07974 2.09613,-1.47309 0.40283,-0.75269 2.78918,-1.97076 5.57017,-2.8432 0.91041,-0.28561 2.0399,-0.7713 2.50998,-1.0793 0.47007,-0.30801 2.15801,-0.66499 3.75096,-0.7933 1.59295,-0.12831 3.08837,-0.384 3.32314,-0.5682 0.23476,-0.1842 5.90957,-0.32795 12.61067,-0.31943 13.05626,0.0166 14.85939,0.20001 20.36106,2.07125 9.8058,3.33516 14.37881,7.70345 20.87175,19.93738 1.36043,2.56331 2.8336,5.33168 3.27372,6.15194 1.74902,3.25973 4.97517,13.25302 5.63936,17.46844 0.40053,2.54205 0.58815,13.58697 0.23676,13.93835 -0.1226,0.1226 -0.22291,1.43276 -0.22291,2.91146 0,3.12643 -0.12892,3.29427 -3.2581,4.24171 l -2.18308,0.66098 z"
         id="path34073"
         transform="matrix(0.26458333,0,0,0.26458333,-29.909227,96.897751)" /></g><text
       xml:space="preserve"
       style="font-style:normal;font-weight:normal;font-size:23.5147px;line-height:1.25;font-family:sans-serif;fill:#4bdda5;fill-opacity:1;stroke:none;stroke-width:0.587868"
       x="122.2081"
       y="168.85123"
       id="text27865"><tspan
         sodipodi:role="line"
         id="tspan27863"
         style="font-style:normal;font-variant:normal;font-weight:bold;font-stretch:normal;font-family:'Sitka Text';-inkscape-font-specification:'Sitka Text Bold';fill:#4bdda5;fill-opacity:1;stroke-width:0.587868"
         x="122.2081"
         y="168.85123">Constantin Müller</tspan></text><text
       xml:space="preserve"
       style="font-style:normal;font-weight:normal;font-size:7.40833px;line-height:1.25;font-family:sans-serif;fill:#4bdda5;fill-opacity:1;stroke:none;stroke-width:0.264583"
       x="146.58751"
       y="182.64032"
       id="text28595"><tspan
         sodipodi:role="line"
         id="tspan28593"
         style="font-style:normal;font-variant:normal;font-weight:normal;font-stretch:normal;font-size:7.40833px;font-family:'Sitka Text';-inkscape-font-specification:'Sitka Text';fill:#4bdda5;fill-opacity:1;stroke-width:0.264583"
         x="146.58751"
         y="182.64032">Self-taught Data Scientist · Software Developer</tspan></text><path
       style="opacity:1;fill:#808080;fill-opacity:1;stroke-width:0;stroke-dasharray:none"
       d="m 307.75741,263.65104 c -1.72613,-0.46541 -5.38589,-2.40484 -5.09221,-2.69852 0.0879,-0.0879 1.65305,0.19747 3.47809,0.63417 4.64391,1.1112 7.0162,1.03373 11.83713,-0.38654 2.22459,-0.65538 4.1315,-1.10483 4.23756,-0.99877 0.37213,0.37214 -3.45958,2.50235 -5.80485,3.22716 -2.67012,0.8252 -6.094,0.91321 -8.65572,0.2225 z"
       id="path36253"
       transform="matrix(0.26458333,0,0,0.26458333,-21.795496,96.897751)" /><path
       style="opacity:1;fill:#808080;fill-opacity:1;stroke-width:0;stroke-dasharray:none"
       d="m 304.98741,257.52266 c 0.82865,-0.45499 2.18146,-0.62618 5.21983,-0.66055 2.25571,-0.0255 4.54705,-0.22923 5.09185,-0.45268 1.44485,-0.5926 5.14433,-0.88318 6.65278,-0.52255 1.27476,0.30477 1.2532,0.31844 -0.93212,0.59104 -1.23039,0.15348 -3.24375,0.54409 -4.47414,0.86802 -1.39241,0.36659 -4.20794,0.62708 -7.4569,0.68992 -5.02398,0.0972 -5.17787,0.0779 -4.1013,-0.5132 z"
       id="path36255"
       transform="matrix(0.26458333,0,0,0.26458333,-21.795496,96.897751)" /><path
       style="opacity:1;fill:#b3b3b3;fill-opacity:1;stroke-width:0;stroke-dasharray:none"
       d=""
       id="path36326"
       transform="matrix(0.26458333,0,0,0.26458333,-21.795496,96.897751)" /><path
       style="opacity:1;fill:#cccccc;fill-opacity:1;stroke-width:0;stroke-dasharray:none"
       d="m 320.46049,317.6258 c -8.08947,-0.95325 -10.55652,-1.81524 -13.75325,-4.80541 -3.24521,-3.03552 -4.61322,-8.27221 -3.21697,-12.31443 0.95709,-2.77081 0.73634,-10.6954 -0.44121,-15.83862 l -0.2134,-0.93211 1.07587,1.00424 c 1.76134,1.64408 4.95213,2.86809 9.12846,3.50177 7.86653,1.19358 11.32282,0.20868 22.25338,-6.3413 9.78177,-5.86158 11.83549,-7.31038 15.46086,-10.90688 3.196,-3.17055 5.31104,-6.80988 6.46247,-11.11993 0.57544,-2.15398 1.25233,-14.03818 0.77414,-13.59168 -0.11991,0.11198 -0.40285,2.51818 -0.62875,5.34712 -1.15909,14.51581 -4.47334,18.7208 -23.82297,30.22564 -7.9768,4.74283 -9.90573,5.47806 -14.94286,5.69565 -4.69322,0.20273 -8.41533,-0.47626 -11.84443,-2.16068 -2.00726,-0.98599 -2.5922,-1.52542 -4.14703,-3.82442 -0.99558,-1.47209 -3.13196,-4.5221 -4.74751,-6.77782 -4.94188,-6.90011 -6.1976,-9.70826 -9.8296,-21.98184 -1.22385,-4.13574 -2.71111,-8.59962 -3.30503,-9.91972 -1.90711,-4.23894 -2.12605,-3.8928 2.46555,-3.898 4.10185,-0.005 8.88127,-0.84158 11.08798,-1.94164 0.6152,-0.30668 1.76197,-1.16829 2.54839,-1.91469 l 1.42984,-1.35708 -0.27152,2.22758 c -0.18038,1.47989 -0.76235,3.15954 -1.73384,5.00417 -1.0798,2.05026 -1.39934,3.02753 -1.22156,3.73586 0.34889,1.39009 0.88786,1.89753 1.99747,1.88062 l 0.97968,-0.0149 -1.06971,-0.5795 c -0.94775,-0.51343 -1.04867,-0.73629 -0.88523,-1.95482 0.10146,-0.75643 0.71465,-2.23697 1.36264,-3.29009 0.94564,-1.53686 1.25174,-2.56462 1.551,-5.20752 0.51888,-4.58264 1.77683,-10.5861 2.42824,-11.58856 0.80093,-1.23258 2.25168,-1.10034 3.05012,0.27803 0.35585,0.61431 1.23423,2.15345 1.95195,3.42031 1.87745,3.31389 4.47799,6.017 6.79693,7.06503 1.79842,0.81278 2.4547,0.88804 7.74404,0.88804 7.40404,0 10.23225,-0.75193 13.0329,-3.46503 2.08797,-2.02271 2.43737,-3.05023 2.81428,-8.27634 0.14037,-1.94633 0.41355,-3.83464 0.60708,-4.19623 0.42896,-0.80154 3.83441,-2.55458 7.81015,-4.02049 2.79565,-1.03078 2.95329,-1.05034 2.95329,-0.3664 0,0.39738 0.33016,1.56013 0.73369,2.58388 0.40352,1.02375 0.99758,2.99932 1.32014,4.39015 0.62449,2.69275 1.40157,4.21575 2.151,4.21575 0.25299,0 1.1059,-1.91539 1.89945,-4.26565 1.66224,-4.92307 2.53463,-6.36914 4.71149,-7.80972 2.14568,-1.41994 6.04689,-2.83844 7.8064,-2.83844 4.29165,0 6.99575,6.98145 5.43,14.01919 -0.73722,3.31367 -3.7579,10.5328 -5.63754,13.47316 -1.88492,2.94863 -6.4809,6.05005 -8.98274,6.06165 -1.29825,0.006 -2.38,-0.96623 -3.0696,-2.75885 l -0.73076,-1.89964 -0.0194,1.42268 c -0.0199,1.45844 0.48355,2.76388 1.32065,3.42431 0.36344,0.28674 0.50006,3.75031 0.59157,14.99772 l 0.119,14.62487 2.59699,5.06751 c 1.42835,2.78713 3.49379,6.15472 4.58985,7.48354 1.81624,2.20191 6.02843,5.73697 6.83587,5.73697 1.0392,0 -0.80935,4.02018 -3.60026,7.82975 -2.44658,3.33956 -7.80078,8.79827 -10.04961,10.24578 -3.61003,2.32368 -9.27332,4.16504 -16.77803,5.45521 -3.41037,0.58629 -6.51305,0.79733 -13.04959,0.88761 -4.71649,0.0651 -9.16267,0.0492 -9.88039,-0.0353 z m -1.49139,-54.06727 c 2.56889,-1.22112 8.2026,-5.55767 8.2026,-6.31394 0,-0.24685 -0.88085,-0.83942 -1.95744,-1.31684 -2.57114,-1.14017 -7.20394,-1.40416 -10.06181,-0.57336 -1.24959,0.36327 -3.29535,0.57125 -5.34862,0.54377 -2.36887,-0.0317 -3.75391,0.13679 -4.81642,0.58596 -1.93398,0.81757 -3.91488,2.74845 -3.91488,3.81603 0,1.0525 1.85633,2.50884 4.7464,3.72369 1.92741,0.8102 2.59736,0.89296 6.43896,0.7955 3.89989,-0.099 4.50693,-0.213 6.71121,-1.26081 z m -8.69292,-15.08004 c 0.57728,-0.21765 1.55882,-0.88673 2.1812,-1.48685 0.62239,-0.60012 2.03731,-1.39899 3.14428,-1.77526 2.42489,-0.82425 1.73733,-1.29195 -0.90752,-0.61732 -1.07832,0.27506 -2.18454,0.85948 -2.64908,1.39955 -0.43868,0.51 -1.14646,1.11397 -1.57284,1.34216 -1.19427,0.63916 -3.81779,0.47821 -5.63354,-0.34561 -1.85422,-0.84127 -2.24385,-0.78304 -1.1832,0.17683 1.58376,1.43328 4.66936,2.04218 6.6207,1.3065 z m 9.92918,-3.38856 c 1.13431,-0.59705 1.36139,-1.03933 1.36795,-2.66426 0.006,-1.55574 -1.29024,-3.24545 -2.49024,-3.24545 -0.54627,0 -0.48323,0.16911 0.35158,0.9432 1.74756,1.62042 1.70054,3.89391 -0.0923,4.46293 -0.78012,0.2476 -1.03623,0.93224 -0.34873,0.93224 0.21854,0 0.76383,-0.1929 1.21174,-0.42866 z m 41.16626,-12.88707 c 1.62716,-1.90462 1.71107,-2.11896 1.97935,-5.0559 0.15408,-1.68684 0.65303,-4.29363 1.10878,-5.79287 1.24574,-4.09803 3.23222,-6.03596 6.18718,-6.03596 1.14202,0 1.62869,0.26857 2.81485,1.55342 1.69492,1.83592 1.94238,1.09732 0.29994,-0.89524 -1.43303,-1.73852 -3.08479,-2.11787 -5.38933,-1.23776 -3.26889,1.2484 -5.03233,4.77546 -5.93046,11.8615 -0.38616,3.04673 -0.52003,3.38893 -1.99615,5.1026 -1.07447,1.24739 -1.58223,2.18358 -1.58223,2.91727 0,1.44801 0.52692,1.91824 0.68407,0.61048 0.0686,-0.57124 0.88944,-1.93363 1.824,-3.02754 z m 3.13776,2.71517 c 1.55608,-0.11643 3.87086,-1.4211 4.45376,-2.51026 0.24131,-0.45089 0.28522,-1.34881 0.11232,-2.29696 l -0.28386,-1.55668 -0.41635,1.86264 c -0.32611,1.45891 -0.68669,2.04481 -1.66356,2.70313 -0.68596,0.46227 -1.78362,0.84049 -2.43924,0.84049 -0.75627,0 -1.45168,0.2957 -1.9023,0.80891 -0.7006,0.79791 -0.70012,0.80511 0.0354,0.52963 0.41013,-0.15361 1.35684,-0.32501 2.1038,-0.3809 z m 1.81107,-8.78739 c 0,-0.48356 -1.38067,-1.86423 -1.86423,-1.86423 -0.578,0 -0.44726,0.37566 0.46606,1.33918 0.89406,0.94321 1.39817,1.13251 1.39817,0.52505 z"
       id="path36397"
       transform="matrix(0.26458333,0,0,0.26458333,-21.795496,96.897751)" /><path
       style="opacity:1;fill:#cccccc;fill-opacity:1;stroke-width:0;stroke-dasharray:none"
       d="m 302.37749,218.81349 c -2.80781,-0.70919 -3.16918,-0.93579 -3.16918,-1.98724 0,-1.84613 -0.66675,-2.04488 -6.84799,-2.04141 -6.07499,0.003 -8.07954,0.36423 -10.39611,1.87133 l -1.39817,0.90961 v -3.68594 c 0,-2.64287 -0.24972,-4.67542 -0.88244,-7.18256 -0.66936,-2.65224 -0.88466,-4.53204 -0.89161,-7.78434 -0.007,-3.38439 0.0525,-3.89497 0.28326,-2.4235 0.34693,2.21179 0.96967,3.91488 1.43147,3.91488 0.18258,0 0.41327,-1.13252 0.51263,-2.51671 0.16015,-2.23108 1.37574,-5.68589 2.00061,-5.68589 0.11093,0 0.0885,0.75501 -0.0499,1.67781 -0.34085,2.27292 0.6348,2.34248 1.30742,0.0932 0.75508,-2.52503 2.07803,-4.83711 3.57341,-6.24516 1.50792,-1.41986 1.51226,-1.39179 0.18634,1.20357 -0.49533,0.96956 -0.77503,1.8884 -0.62156,2.04187 0.15347,0.15348 1.14741,-0.71094 2.20876,-1.92091 1.64385,-1.87407 5.79247,-5.05298 6.59435,-5.05298 0.13776,0 0.1766,0.50334 0.0863,1.11853 -0.0903,0.6152 -0.003,1.11854 0.19319,1.11854 0.19654,0 1.39188,-0.66865 2.6563,-1.48588 3.0639,-1.98029 4.81821,-2.84502 6.39211,-3.15076 l 1.30495,-0.2535 -1.46239,0.86048 c -1.58941,0.93521 -2.31501,2.05336 -1.10423,1.7016 0.38632,-0.11223 2.71948,-0.79393 5.1848,-1.51488 4.55091,-1.33086 11.18296,-2.24056 10.42172,-1.42952 -0.2104,0.22416 -1.28709,0.53774 -2.39266,0.69685 -1.10556,0.1591 -2.07487,0.48354 -2.15402,0.72097 -0.18919,0.56758 4.76085,1.03848 8.05923,0.76668 2.50941,-0.20678 2.25364,0.0124 -0.98616,0.84517 -2.82275,0.72556 -1.91011,1.25572 1.7531,1.01839 3.67135,-0.23786 6.19193,-1.12216 7.99143,-2.80368 l 1.07588,-1.00533 -0.26086,1.11853 c -0.14347,0.6152 -1.12112,1.99523 -2.17256,3.06675 -1.05144,1.07152 -1.79008,2.06984 -1.64143,2.2185 0.57569,0.57569 4.96264,-0.91315 12.39936,-4.20806 0.51456,-0.22798 2.20302,3.60956 2.56519,5.83013 0.14963,0.91747 0.74019,2.7587 1.31235,4.09162 0.57216,1.33292 1.15791,3.01072 1.30168,3.72845 0.14376,0.71773 1.24271,3.4861 2.4421,6.15195 1.1994,2.66584 2.33971,5.5585 2.53404,6.42812 l 0.35331,1.58114 -2.84914,0.89503 c -1.56703,0.49227 -3.86869,1.1789 -5.1148,1.52584 l -2.26566,0.6308 -1.64921,-1.09007 c -2.04403,-1.35102 -4.36403,-2.26886 -6.93741,-2.74457 -2.55954,-0.47316 -7.31905,0.3122 -14.65903,2.41885 l -5.40626,1.55165 -0.11712,1.41595 c -0.10661,1.28891 -0.27386,1.48554 -1.86422,2.19157 -1.72383,0.76528 -7.06595,1.25437 -8.83117,0.80852 z"
       id="path36399"
       transform="matrix(0.26458333,0,0,0.26458333,-21.795496,96.897751)" /><path
       style="opacity:1;fill:#cccccc;fill-opacity:1;stroke-width:0;stroke-dasharray:none"
       d="m 319.09306,232.9236 c -2.91495,-1.047 -4.39798,-2.38007 -5.78725,-5.20209 -0.98261,-1.99596 -1.23409,-2.96421 -1.2342,-4.75193 l -1.4e-4,-2.2452 1.6778,-0.82072 c 3.4792,-1.70191 10.44911,-3.54213 14.16978,-3.74116 3.98074,-0.21294 7.43341,0.3386 8.33142,1.33089 1.37629,1.52078 2.16019,8.01855 1.32866,11.01328 -0.88789,3.19774 -4.43916,4.67244 -11.89881,4.94111 -3.8926,0.14019 -4.97805,0.0538 -6.58726,-0.52418 z m 12.08673,-11.46163 c 2.59353,-1.16427 2.92455,-1.89381 1.40254,-3.09103 -2.55977,-2.01351 -9.27443,-0.85543 -11.98251,2.06664 -1.83333,1.97819 -1.10733,2.32708 4.52123,2.17273 3.14738,-0.0863 4.09162,-0.26527 6.05874,-1.14834 z"
       id="path36401"
       transform="matrix(0.26458333,0,0,0.26458333,-21.795496,96.897751)" /><path
       style="opacity:1;fill:#cccccc;fill-opacity:1;stroke-width:0;stroke-dasharray:none"
       d="m 283.37168,236.10425 c -0.0845,-0.25633 -0.21333,-2.98276 -0.28618,-6.05874 -0.12864,-5.43102 -0.16672,-5.65923 -1.31733,-7.89523 l -1.18486,-2.30255 1.20311,-0.29337 c 1.8357,-0.44763 9.80449,-0.21618 12.94774,0.37605 l 2.79634,0.52688 -2.34226,0.0403 c -4.97911,0.0857 -8.3944,2.98172 -5.12662,4.34709 1.64906,0.68902 5.76609,0.68689 8.36323,-0.004 2.49727,-0.66464 2.97458,-1.08343 2.35871,-2.06959 -0.70756,-1.13298 -0.51547,-1.40101 0.30138,-0.4205 0.60868,0.73064 0.73328,1.44591 0.73328,4.20936 0,5.33269 -1.44782,7.28836 -6.72436,9.08303 -2.30145,0.78277 -3.41773,0.92764 -7.14792,0.92764 -3.20588,0 -4.46278,-0.12806 -4.57426,-0.46606 z"
       id="path36403"
       transform="matrix(0.26458333,0,0,0.26458333,-21.795496,96.897751)" /></g></svg>
